<!-- icon666.com - MILLIONS vector ICONS FREE --><svg fill="none" viewBox="0 0 24 24" xmlns="http://www.w3.org/2000/svg" xmlns:xlink="http://www.w3.org/1999/xlink"><linearGradient id="paint0_linear_1795_6123" gradientUnits="userSpaceOnUse" x1="12" x2="12" y1="2" y2="22"><stop offset="0" stop-color="#fd6700"></stop><stop offset="1" stop-color="#ffce00"></stop></linearGradient><path clip-rule="evenodd" d="m18 2h-12c-2.20914 0-4 1.79086-4 4v12c0 2.2091 1.79086 4 4 4h12c2.2091 0 4-1.7909 4-4v-12c0-2.20914-1.7909-4-4-4zm-1.408 7.46049c.2543-.32696.1954-.79817-.1315-1.05247-.327-.2543-.7982-.1954-1.0525.13156l-4.007 5.15182c-.0891.1146-.2567.1295-.3646.0324l-2.53467-2.2812c-.30788-.2771-.7821-.2522-1.05919.0557-.2771.3079-.25214.7821.05574 1.0592l2.53472 2.2812c.7551.6796 1.9283.5756 2.552-.2264z" fill="url(#paint0_linear_1795_6123)" fill-rule="evenodd" style="fill: rgb(255, 123, 0);"></path></svg>