<!-- icon666.com - MILLIONS vector ICONS FREE --><svg viewBox="-50 0 512 512" xmlns="http://www.w3.org/2000/svg"><path d="m411.179688 93.457031c0 19.929688-16.15625 36.085938-36.085938 36.085938-19.933594 0-36.089844-16.15625-36.089844-36.085938 0-19.929687 16.15625-36.085937 36.089844-36.085937 19.929688 0 36.085938 16.15625 36.085938 36.085937zm0 0" fill="#d5e7f7"></path><path d="m411.179688 204.316406c0 19.554688-15.851563 35.40625-35.40625 35.40625-19.554688 0-35.40625-15.851562-35.40625-35.40625 0-19.554687 15.851562-35.40625 35.40625-35.40625 19.554687 0 35.40625 15.851563 35.40625 35.40625zm0 0" fill="#f7d291"></path><path d="m70.8125 204.316406c0 19.554688-15.851562 35.40625-35.40625 35.40625s-35.40625-15.851562-35.40625-35.40625c0-19.554687 15.851562-35.40625 35.40625-35.40625s35.40625 15.851563 35.40625 35.40625zm0 0" fill="#f0c382"></path><path d="m42.644531 512c0-89.992188 72.953125-162.945312 162.945313-162.945312 89.992187 0 162.945312 72.953124 162.945312 162.945312zm0 0" fill="#e04141"></path><path d="m226.195312 350.347656c-6.75-.855468-13.625-1.292968-20.605468-1.292968-89.992188 0-162.945313 72.953124-162.945313 162.945312h41.207031c0-83.015625 62.078126-151.527344 142.34375-161.652344zm0 0" fill="#c93939"></path><path d="m179.742188 351.101562v160.898438h51.511718v-160.929688c-8.363281-1.320312-16.933594-2.015624-25.664062-2.015624-8.796875 0-17.425782.707031-25.847656 2.046874zm0 0" fill="#e1efff"></path><path d="m33.640625 167.746094c-2.03125 10.671875-3.109375 21.683594-3.109375 32.945312 0 96.679688 78.375 175.058594 175.058594 175.058594s175.058594-78.378906 175.058594-175.058594c0-11.261718-1.078126-22.273437-3.109376-32.945312zm0 0" fill="#ffe1a0"></path><path d="m377.964844 141.136719h-45.394532s-.449218 131.003906-46.355468 131.003906-33.761719-54-80.714844-54-34.8125 54-80.71875 54c-45.902344 0-46.351562-131.003906-46.351562-131.003906h-45.394532s-6.007812 50.578125-6.007812 82.242187c0 96.171875 33.21875 159.335938 46.65625 159.335938 13.433594 0 20.304687-25.484375 20.304687-25.484375s18.558594 50.441406 37.78125 50.441406c19.222657 0 26.089844-24.957031 26.089844-24.957031s20.421875 45.324218 47.640625 45.324218 47.640625-45.324218 47.640625-45.324218 6.867187 24.957031 26.089844 24.957031c19.222656 0 37.78125-50.441406 37.78125-50.441406s6.867187 25.484375 20.304687 25.484375 46.65625-63.164063 46.65625-159.335938c0-31.664062-6.007812-82.242187-6.007812-82.242187zm0 0" fill="#fefefe"></path><path d="m68.332031 223.6875c0-31.664062 6.011719-82.242188 6.011719-82.242188h4.085938c0-.195312 0-.308593 0-.308593l-45.394532-.003907s-6.007812 50.578126-6.007812 82.246094c0 96.171875 33.21875 159.332032 46.65625 159.332032 13.324218 0 20.183594-25.042969 20.296875-25.464844-12.894531-27.070313-25.648438-73.972656-25.648438-133.558594zm0 0" fill="#d1e7f8"></path><path d="m205.589844 0c65.933594 0 169.503906 54.019531 169.503906 93.457031s-169.503906-15.164062-169.503906-15.164062zm0 0" fill="#aa1e1e"></path><path d="m205.589844 0c-95.808594 0-185.691406 170.496094-185.691406 170.496094h371.382812s-89.882812-170.496094-185.691406-170.496094zm0 0" fill="#f55"></path><path d="m226.195312 2.535156c-6.816406-1.644531-13.695312-2.535156-20.605468-2.535156-95.808594 0-185.691406 170.496094-185.691406 170.496094h41.207031s77.386719-146.785156 165.089843-167.960938zm0 0" fill="#e04141"></path><path d="m39.214844 121.046875h332.75c17.636718 0 31.933594 14.296875 31.933594 31.933594 0 17.640625-14.296876 31.9375-31.933594 31.9375h-332.75c-17.636719 0-31.933594-14.296875-31.933594-31.9375 0-17.636719 14.296875-31.933594 31.933594-31.933594zm0 0" fill="#e1efff"></path><path d="m48.488281 152.980469c0-17.636719 14.296875-31.933594 31.933594-31.933594h-41.207031c-17.636719 0-31.933594 14.296875-31.933594 31.933594 0 17.640625 14.296875 31.9375 31.933594 31.9375h41.207031c-17.636719 0-31.933594-14.300781-31.933594-31.9375zm0 0" fill="#d5e7f7"></path><path d="m241.644531 486.714844h-72.113281c-8.53125 0-15.453125-6.917969-15.453125-15.453125 0-8.53125 6.917969-15.453125 15.453125-15.453125h72.113281c8.535157 0 15.453125 6.917968 15.453125 15.453125 0 8.535156-6.917968 15.453125-15.453125 15.453125zm0 0" fill="#ffde55"></path><path d="m195.289062 471.261719c0-8.53125 6.917969-15.453125 15.453126-15.453125h-41.207032c-8.535156 0-15.453125 6.921875-15.453125 15.453125 0 8.535156 6.917969 15.453125 15.453125 15.453125h41.207032c-8.535157 0-15.453126-6.917969-15.453126-15.453125zm0 0" fill="#ffcd00"></path><g fill="#1d1d1f"><path d="m205.589844 280.890625c-9.78125 0-18.886719-5.269531-23.765625-13.757813-2.066407-3.589843-.828125-8.175781 2.761719-10.238281 3.59375-2.066406 8.175781-.828125 10.242187 2.761719 2.210937 3.847656 6.332031 6.234375 10.761719 6.234375 4.429687 0 8.550781-2.386719 10.761718-6.234375 2.066407-3.589844 6.652344-4.828125 10.242188-2.761719 3.589844 2.066407 4.828125 6.648438 2.761719 10.242188-4.878907 8.484375-13.984375 13.753906-23.765625 13.753906zm0 0"></path><path d="m281.503906 230.128906c-4.144531 0-7.5-3.359375-7.5-7.5v-11.699218c0-4.144532 3.355469-7.5 7.5-7.5 4.140625 0 7.5 3.355468 7.5 7.5v11.699218c0 4.140625-3.359375 7.5-7.5 7.5zm0 0"></path><path d="m129.675781 230.128906c-4.140625 0-7.5-3.359375-7.5-7.5v-11.699218c0-4.144532 3.359375-7.5 7.5-7.5 4.144531 0 7.5 3.355468 7.5 7.5v11.699218c0 4.140625-3.355469 7.5-7.5 7.5zm0 0"></path></g><path d="m287.351562 252.238281h-11.695312c-4.144531 0-7.5-3.355469-7.5-7.5 0-4.140625 3.355469-7.5 7.5-7.5h11.695312c4.144532 0 7.5 3.359375 7.5 7.5 0 4.144531-3.355468 7.5-7.5 7.5zm0 0" fill="#f55"></path><path d="m135.527344 252.238281h-11.699219c-4.144531 0-7.5-3.355469-7.5-7.5 0-4.140625 3.355469-7.5 7.5-7.5h11.699219c4.140625 0 7.5 3.359375 7.5 7.5 0 4.144531-3.359375 7.5-7.5 7.5zm0 0" fill="#f55"></path></svg>