<!-- icon666.com - MILLIONS vector ICONS FREE --><svg id="Capa_1" enable-background="new 0 0 512 512" viewBox="0 0 512 512" xmlns="http://www.w3.org/2000/svg"><g><g><path d="m511.729 274.336c-4.075-72.092-55.262-131.578-123.267-148.167l-9 150.735 9 145.597 16.174 5.138c57.744-22.454 107.093-81.489 107.093-153.303z" fill="#565e75"></path><path d="m420.204 274.335c-2.756-21.031-14.737-39.152-31.742-50.193l-9 50.193 9 50.193 8.951 1.716c12.197-11.014 22.791-30.748 22.791-51.909z" fill="#edf4fa"></path><path d="m388.462 324.527-9 8.414 9 10.167c19.463-12.637 32.347-34.549 32.347-59.483 0-3.15-.207-6.25-.605-9.29-2.755 21.03-14.737 39.151-31.742 50.192z" fill="#d8e5ef"></path><path d="m388.462 422.5-9 9.789 9 8.792c70.905-17.297 123.538-81.225 123.538-157.456 0-3.119-.097-6.215-.271-9.29-4.075 72.091-55.263 131.576-123.267 148.165z" fill="#4b5165"></path><path d="m372.978 89.393h-357.494c-8.552 0-15.484 6.933-15.484 15.484v338.914c0 18.581 6.932 24.484 15.484 24.484h357.495c8.552 0 15.484-5.903 15.484-24.484v18.583c0-.001 0-.002 0-.003v-357.494c-.001-8.551-6.933-15.484-15.485-15.484z" fill="#f7594e"></path><path d="m136.632 318.217h9.684l-22.074 45.385 69.99 9 69.223-9-22.074-45.385h9.684c3.864 0 6.358-4.09 4.588-7.525l-32.036-62.188h6.641c3.968 0 6.452-4.291 4.476-7.731l-36.408-63.405c-1.984-3.455-6.968-3.455-8.952 0l-36.408 63.405c-1.976 3.441.508 7.731 4.476 7.731h6.641l-32.036 62.188c-1.773 3.435.721 7.525 4.585 7.525z" fill="#36ce94"></path><path d="m177.238 382.182v18.581l16.993 9 16.993-9v-18.581l-17.376-9z" fill="#eaab92"></path><path d="m177.238 400.763v13.799c0 2.851 2.311 5.161 5.161 5.161h23.663c2.85 0 5.161-2.311 5.161-5.161v-13.799z" fill="#edbca4"></path><g><path d="m263.454 363.602h-139.213l-5.429 11.162c-1.667 3.428.829 7.419 4.641 7.419h140.788c3.812 0 6.309-3.991 4.641-7.419z" fill="#36bf84"></path></g><path d="m372.978 459.275h-357.494c-8.552 0-15.484-6.932-15.484-15.484v18.581c0 8.552 6.932 15.484 15.484 15.484h357.495c8.552 0 15.484-6.932 15.484-15.484v-18.581c-.001 8.552-6.933 15.484-15.485 15.484z" fill="#ea4642"></path></g><g><path d="m316.537 217.754v-66.208c1.599.811 3.291 1.816 4.965 3.052 8.665 6.401 13.059 16.128 13.059 28.912 0 4.284 3.473 7.757 7.757 7.757s7.757-3.473 7.757-7.757c0-35.158-26.26-48.383-40.146-50.465-4.539-.792-9.013 3.07-8.906 7.671v54.233c-2.792-1.107-5.831-1.723-9.013-1.723-13.524 0-24.527 11.002-24.527 24.526s11.002 24.527 24.527 24.527c13.524.002 24.527-11.001 24.527-24.525zm-33.54 0c0-4.969 4.043-9.012 9.012-9.012s9.013 4.043 9.013 9.012-4.043 9.013-9.013 9.013c-4.969 0-9.012-4.043-9.012-9.013z" fill="#febd55"></path></g><path d="m420.815 387.309c-2.371 0-4.711-1.085-6.229-3.137-2.544-3.437-1.82-8.285 1.617-10.829 28.341-20.973 45.26-54.513 45.26-89.718 0-35.168-16.89-68.687-45.182-89.661-3.435-2.546-4.155-7.395-1.608-10.83 2.546-3.434 7.396-4.154 10.83-1.608 32.213 23.882 51.445 62.05 51.445 102.1 0 40.092-19.264 78.285-51.532 102.165-1.386 1.023-3.001 1.518-4.601 1.518z" fill="#4b5165"></path><path d="m151.79 36.97c-3.082-2.462-7.056-3.375-10.903-2.503l-54.118 12.258c-5.92 1.34-10.055 6.515-10.055 12.585v66.424c-2.786-1.105-5.819-1.72-8.995-1.72-13.498 0-24.479 10.981-24.479 24.478s10.981 24.479 24.479 24.479 24.479-10.981 24.479-24.479v-87.121l48.958-11.089v58.714c-2.787-1.105-5.82-1.72-8.995-1.72-13.498 0-24.479 10.981-24.479 24.479s10.981 24.478 24.479 24.478 24.479-10.981 24.479-24.478v-84.703c0-3.945-1.768-7.619-4.85-10.082zm-84.07 120.517c-4.96 0-8.995-4.035-8.995-8.995s4.035-8.994 8.995-8.994 8.995 4.035 8.995 8.994c0 4.96-4.036 8.995-8.995 8.995zm64.441-16.737c-4.96 0-8.995-4.035-8.995-8.994 0-4.96 4.035-8.995 8.995-8.995s8.995 4.035 8.995 8.995c0 4.959-4.035 8.994-8.995 8.994z" fill="#febd55"></path></g></svg>