<!-- icon666.com - MILLIONS vector ICONS FREE --><svg viewBox="0 -33 512.00019 512" xmlns="http://www.w3.org/2000/svg"><path d="m483.253906 63.515625h-34.769531c-74.652344 76.695313-142.144531 0-235.726563 0-93.582031 0-240.871093 83.855469-208.085937 262.300781l187.648437 26.074219 187.648438-26.074219c0-62.890625-53.175781-51.644531-53.175781-99.707031s153.390625-19.429687 156.460937-162.59375zm0 0" fill="#79c08c"></path><path d="m45.878906 325.816406c-30.492187-165.980468 94.804688-250.121094 187.765625-261.070312-6.820312-.78125-13.777343-1.230469-20.886719-1.230469-93.585937 0-240.871093 83.855469-208.085937 262.300781l187.648437 26.078125 20.601563-2.863281zm0 0" fill="#35a155"></path><path d="m379.96875 325.816406h-375.296875v72.546875c0 26.011719 21.085937 47.097657 47.097656 47.097657h281.101563c26.011718 0 47.097656-21.085938 47.097656-47.097657zm0 0" fill="#ff7a7a"></path><path d="m45.878906 398.363281v-72.546875h-41.207031v72.546875c0 26.011719 21.085937 47.097657 47.097656 47.097657h41.207031c-26.011718 0-47.097656-21.085938-47.097656-47.097657zm0 0" fill="#d83a5c"></path><g fill="#434a53"><path d="m109.511719 396.859375c-4.265625 0-7.726563-3.460937-7.726563-7.726563v-14.988281c0-4.265625 3.460938-7.726562 7.726563-7.726562s7.726562 3.460937 7.726562 7.726562v14.988281c0 4.265626-3.460937 7.726563-7.726562 7.726563zm0 0"></path><path d="m275.128906 396.859375c-4.269531 0-7.726562-3.460937-7.726562-7.726563v-14.988281c0-4.265625 3.457031-7.726562 7.726562-7.726562 4.265625 0 7.726563 3.460937 7.726563 7.726562v14.988281c0 4.265626-3.460938 7.726563-7.726563 7.726563zm0 0"></path><path d="m192.320312 404.859375c-10.195312 0-19.765624-4.261719-26.257812-11.683594-2.804688-3.214843-2.480469-8.09375.734375-10.902343 3.214844-2.808594 8.09375-2.480469 10.902344.730468 3.554687 4.070313 8.882812 6.402344 14.621093 6.402344 5.734376 0 11.0625-2.335938 14.621094-6.402344 2.808594-3.210937 7.6875-3.539062 10.902344-.730468 3.210938 2.808593 3.539062 7.6875.730469 10.902343-6.488281 7.421875-16.058594 11.683594-26.253907 11.683594zm0 0"></path></g><path d="m404.382812 92.921875c14.105469 18.503906 36.363282 30.472656 61.371094 30.472656 1.40625 0 2.796875-.042969 4.183594-.117187 7.839844-15.703125 12.789062-35.203125 13.316406-59.761719h-34.769531c-14.898437 15.304687-29.511719 24.488281-44.101563 29.40625zm0 0" fill="#35a155"></path><path d="m512 46.246094c0 25.539062-20.703125 46.242187-46.246094 46.242187-25.539062 0-46.242187-20.703125-46.242187-46.242187 0-25.542969 20.703125-46.246094 46.242187-46.246094 25.542969 0 46.246094 20.703125 46.246094 46.246094zm0 0" fill="#ff7a7a"></path><path d="m486.359375 71.886719c-25.539063 0-46.246094-20.707031-46.246094-46.246094 0-7.457031 1.777344-14.492187 4.910157-20.730469-15.125 7.601563-25.511719 23.25-25.511719 41.335938 0 25.539062 20.703125 46.242187 46.242187 46.242187 18.085938 0 33.734375-10.386719 41.335938-25.511719-6.234375 3.132813-13.273438 4.910157-20.730469 4.910157zm0 0" fill="#d83a5c"></path></svg>