<!-- icon666.com - MILLIONS vector ICONS FREE --><svg clip-rule="evenodd" fill-rule="evenodd" image-rendering="optimizeQuality" shape-rendering="geometricPrecision" text-rendering="geometricPrecision" viewBox="0 0 1706.66 1706.66" xmlns="http://www.w3.org/2000/svg" xmlns:xlink="http://www.w3.org/1999/xlink" xmlns:xodm="http://www.corel.com/coreldraw/odm/2003"><linearGradient id="id0" gradientUnits="userSpaceOnUse" x1="84.52" x2="1622.14" y1="853.33" y2="853.33"><stop offset="0" stop-color="#ffb800"></stop><stop offset="1" stop-color="#ff5329"></stop></linearGradient><g id="Layer_x0020_1"><path d="m96.09 775.44 184.69 130.42-.05-315.06-184.65 184.64zm-11.58 43.35v862.22l541.64-479.71zm768.81 237.23-734.57 650.64h1469zm227.32 145.28 541.5 479.71v-862.22zm345.41-610.36-.05 315.13 184.73-130.45zm-1103.37-47.72.06 392.28 335.75 237.1 181.13-160.44c8.01-6.99 19.81-6.99 27.83 0l181.13 160.44 335.3-236.78.15-935.82h-1061.43zm801.81 344.06h-542.37c-27.59 0-27.7-41.96 0-41.96h542.51c27.77 0 27.52 41.96-.15 41.96zm-61.79-446.04h-372.56l15.59 50.13h342.59zm-422.15-14.44-95.58-310.81h-109.43c-27.66 0-27.66-41.97 0-41.97h124.88c9.18 0 17.34 5.98 20.11 14.72l29.41 94.57h501.73c49.19 0 58.33 36.44 46.78 76.35-8.37 29.04-72.05 256.83-76.93 264.44-3.77 5.88-10.11 9.37-17.49 9.37l-381.78-.14c-28.56 0-28.56 43.42 0 43.42h381.78c27.56 0 27.72 41.96 0 41.96h-15.15c15.83 40.94-5.39 97.2-63.54 97.2-58.27 0-79.52-56.26-63.66-97.2h-97.97c15.85 40.94-5.31 97.2-63.5 97.2-58.2 0-79.36-56.26-63.51-97.2h-14.45c-76.11 0-83.11-105.02-20.97-124.32l-20.72-67.61zm-2.02-151.53h471.78c3.12-10.89 13.51-42.93 10.54-48.82-.3 0-2.48-1.16-9.18-1.16h-488.69l15.54 49.98zm38.57 124h397.65l23.52-82.04h-446.69zm83.1 219.45c-36.23 0-36.22 55.08 0 55.08 36.23 0 36.23-55.08 0-55.08zm225.13 0c-36.23 0-36.22 55.08 0 55.08 36.23 0 36.23-55.08 0-55.08z" fill="url(#id0)"></path></g></svg>