<!-- icon666.com - MILLIONS vector ICONS FREE --><svg id="Layer_1" enable-background="new 0 0 512 512" viewBox="0 0 512 512" xmlns="http://www.w3.org/2000/svg" xmlns:xlink="http://www.w3.org/1999/xlink"><linearGradient id="SVGID_1_" gradientUnits="userSpaceOnUse" x1="22.987" x2="489.013" y1="489.013" y2="22.987"><stop offset="0" stop-color="#fcc60e"></stop><stop offset="1" stop-color="#e92e29"></stop></linearGradient><path d="m198.074 170.927c0-31.941 25.986-57.927 57.928-57.927 31.94 0 57.927 25.986 57.927 57.927s-25.986 57.927-57.927 57.927-57.928-25.985-57.928-57.927zm57.926 86.036c-73.462 0-134.134 54.947-142.237 126.821 45.232 10.1 93.026 15.216 142.237 15.216s97.005-5.116 142.237-15.216c-8.103-71.874-68.775-126.821-142.237-126.821zm256-178.57v355.215c0 43.225-35.167 78.392-78.393 78.392h-355.214c-43.226 0-78.393-35.167-78.393-78.393v-355.214c0-43.226 35.167-78.393 78.393-78.393h355.215c43.225 0 78.392 35.167 78.392 78.393zm-89.012 314.213c-1.909-43.059-20.127-83.237-51.296-113.135-20.088-19.269-44.234-32.965-70.422-40.303 22.076-14.693 36.659-39.792 36.659-68.241 0-45.175-36.752-81.927-81.927-81.927s-81.928 36.752-81.928 81.927c0 28.449 14.583 53.547 36.658 68.24-26.189 7.338-50.336 21.034-70.425 40.304-31.169 29.897-49.387 70.076-51.296 113.135-.254 5.735 3.59 10.848 9.171 12.196 49.993 12.076 103.089 18.198 157.818 18.198s107.825-6.122 157.817-18.197c5.581-1.349 9.425-6.461 9.171-12.197z" fill="url(#SVGID_1_)"></path></svg>