<!-- icon666.com - MILLIONS vector ICONS FREE --><svg version="1.1" id="Capa_1" xmlns="http://www.w3.org/2000/svg" xmlns:xlink="http://www.w3.org/1999/xlink" x="0px" y="0px" viewBox="0 0 512 512" style="enable-background:new 0 0 512 512;" xml:space="preserve"><path style="fill:#FFBD86;" d="M286,376c-21.405,0-40.087,11.347-50.709,28.257l-27.089-37.925l-24.404,17.432l43.008,60.212 C230.752,473.269,255.641,496,286,496c33.091,0,60-26.909,60-60S319.091,376,286,376z M286,466c-16.538,0-30-13.462-30-30 s13.462-30,30-30s30,13.462,30,30S302.538,466,286,466z"></path><path style="fill:#FF9100;" d="M0,16v330h512V16H0z"></path><rect x="196" y="16" style="fill:#FF7816;" width="316" height="330"></rect><path style="fill:#FAECD8;" d="M106,166c-8.276,0-15-6.724-15-15s6.724-15,15-15s15,6.724,15,15h30c0-19.53-12.578-36.024-30-42.237 V76H91v32.763C73.578,114.976,61,131.47,61,151c0,24.814,20.186,45,45,45c8.276,0,15,6.724,15,15s-6.724,15-15,15s-15-6.724-15-15 H61c0,19.53,12.578,36.024,30,42.237V286h30v-32.763c17.422-6.213,30-22.707,30-42.237C151,186.186,130.814,166,106,166z"></path><g><rect x="181" y="16" style="fill:#4A696F;" width="30" height="60"></rect><rect x="181" y="106" style="fill:#4A696F;" width="30" height="60"></rect><rect x="181" y="196" style="fill:#4A696F;" width="30" height="75.901"></rect></g><g><rect x="331" y="76" style="fill:#F4D7AF;" width="120" height="30"></rect><rect x="331" y="136" style="fill:#F4D7AF;" width="120" height="30"></rect><rect x="331" y="196" style="fill:#F4D7AF;" width="120" height="30"></rect><rect x="331" y="256" style="fill:#F4D7AF;" width="120" height="30"></rect></g><g><rect x="196" y="16" style="fill:#3E5959;" width="15" height="60"></rect><rect x="196" y="106" style="fill:#3E5959;" width="15" height="60"></rect><rect x="196" y="196" style="fill:#3E5959;" width="15" height="75.901"></rect></g><path style="fill:#FAECD8;" d="M300.099,217.599c-3.3-19.799-14.099-37.2-30.599-48.898l-12-8.701L196,246.1l-15.901,22.2 c-22.5,31.501-24,73.5-4.499,109.2l-18.9,26.7C146.201,387.4,127.301,376,106,376c-32.999,0-60,27.001-60,60s27.001,60,60,60 c30.3,0,55.201-22.8,59.099-51.899l30.901-43.2l90.901-127.5C298.599,257.199,303.401,237.4,300.099,217.599z M106,466 c-16.5,0-30-13.5-30-30s13.5-30,30-30s30,13.5,30,30S122.5,466,106,466z"></path><path style="fill:#F4D7AF;" d="M286.901,273.401L196,400.901V246.099l61.5-86.1l12.001,8.701 c16.5,11.699,27.299,29.099,30.599,48.898C303.401,237.4,298.599,257.199,286.901,273.401z"></path></svg>