<svg width="211" height="79" viewBox="0 0 211 79" fill="none" xmlns="http://www.w3.org/2000/svg">
<path d="M24.08 6.36C24.5333 6.36 24.9067 6.50666 25.2 6.8C25.4933 7.09333 25.64 7.46667 25.64 7.92V14.08C25.64 14.5067 25.48 14.8667 25.16 15.16C24.8667 15.4533 24.5067 15.6 24.08 15.6H23.24C23.0533 15.6 22.8933 15.6667 22.76 15.8C22.6267 15.9333 22.56 16.0933 22.56 16.28V17.96C22.56 18.1467 22.6267 18.32 22.76 18.48C22.92 18.6133 23.0933 18.68 23.28 18.68H24.08C24.5333 18.68 24.9067 18.8267 25.2 19.12C25.4933 19.4133 25.64 19.7867 25.64 20.24V23.32C25.64 23.7467 25.48 24.1067 25.16 24.4C24.8667 24.6933 24.5067 24.84 24.08 24.84H23.28C23.0933 24.84 22.92 24.9067 22.76 25.04C22.6267 25.1733 22.56 25.3467 22.56 25.56V26.4C22.56 26.8267 22.4133 27.1867 22.12 27.48C21.8267 27.7733 21.4667 27.92 21.04 27.92H20.2C20.0133 27.92 19.84 27.9867 19.68 28.12C19.5467 28.2533 19.48 28.4267 19.48 28.64V29.48C19.48 29.9067 19.3333 30.2667 19.04 30.56C18.7467 30.8533 18.3867 31 17.96 31H2.56C2.13333 31 1.76 30.8533 1.44 30.56C1.14667 30.2667 1 29.9067 1 29.48V1.76C1 1.33333 1.14667 0.973332 1.44 0.679999C1.76 0.359999 2.13333 0.199998 2.56 0.199998H17.96C18.3867 0.199998 18.7467 0.359999 19.04 0.679999C19.3333 0.973332 19.48 1.33333 19.48 1.76V2.56C19.48 2.74666 19.5467 2.92 19.68 3.08C19.84 3.21333 20.0133 3.28 20.2 3.28H21.04C21.4667 3.28 21.8267 3.44 22.12 3.76C22.4133 4.05333 22.56 4.41333 22.56 4.84V5.68C22.56 5.84 22.6133 5.98667 22.72 6.12C22.8267 6.22667 22.9467 6.30667 23.08 6.36H24.08ZM19.48 4.04C19.48 3.82667 19.4 3.65333 19.24 3.52C19.1067 3.36 18.9467 3.28 18.76 3.28H4.76C4.57333 3.28 4.41333 3.34667 4.28 3.48C4.14667 3.61333 4.08 3.77333 4.08 3.96V11.84C4.08 12.0267 4.14667 12.1867 4.28 12.32C4.41333 12.4533 4.57333 12.52 4.76 12.52H5.64C6.06667 12.52 6.42667 12.68 6.72 13C7.01333 13.2933 7.16 13.6533 7.16 14.08V14.88C7.16 15.0933 7.22667 15.2667 7.36 15.4C7.52 15.5333 7.70667 15.6 7.92 15.6H18.8C19.0133 15.6 19.1733 15.5333 19.28 15.4C19.4133 15.2667 19.48 15.1067 19.48 14.92V14.08C19.48 13.6267 19.6267 13.2533 19.92 12.96C20.24 12.6667 20.6133 12.52 21.04 12.52H21.88C22.0667 12.52 22.2267 12.4533 22.36 12.32C22.4933 12.1867 22.56 12.0267 22.56 11.84V7.12C22.56 6.90667 22.4933 6.73333 22.36 6.6C22.2267 6.46667 22.0533 6.4 21.84 6.4V6.36H21.04C20.6133 6.36 20.24 6.21333 19.92 5.92C19.6267 5.62667 19.48 5.26667 19.48 4.84V4.04ZM22.56 19.44C22.56 19.2267 22.4933 19.0533 22.36 18.92C22.2267 18.76 22.0533 18.68 21.84 18.68H8.72C8.29333 18.68 7.92 18.5333 7.6 18.24C7.30667 17.9467 7.16 17.5867 7.16 17.16V16.36C7.16 16.1467 7.09333 15.9733 6.96 15.84C6.82667 15.68 6.65333 15.6 6.44 15.6H5.64C5.21333 15.6 4.84 15.4533 4.52 15.16C4.22667 14.8667 4.08 14.5067 4.08 14.08V27.24C4.08 27.4267 4.14667 27.5867 4.28 27.72C4.41333 27.8533 4.57333 27.92 4.76 27.92H18.76C18.9733 27.92 19.1467 27.8533 19.28 27.72C19.4133 27.56 19.48 27.3867 19.48 27.2V26.4C19.48 25.9467 19.6267 25.5733 19.92 25.28C20.24 24.9867 20.6133 24.84 21.04 24.84H21.84C22.0533 24.84 22.2267 24.7733 22.36 24.64C22.4933 24.48 22.56 24.3067 22.56 24.12V19.44ZM32.4422 0.28C32.6289 0.28 32.7889 0.346666 32.9222 0.48C33.0555 0.586665 33.1222 0.733331 33.1222 0.919999V29.48C33.1222 29.9067 32.9622 30.2667 32.6422 30.56C32.3489 30.8533 31.9889 31 31.5622 31H30.7222C30.5355 31 30.3755 30.9333 30.2422 30.8C30.1089 30.6667 30.0422 30.5067 30.0422 30.32V1.8C30.0422 1.37333 30.1889 1.01333 30.4822 0.719999C30.7755 0.426666 31.1355 0.28 31.5622 0.28H32.4422ZM56.3541 11.04C56.3541 10.6133 56.5007 10.2533 56.7941 9.96C57.0874 9.64 57.4474 9.48 57.8741 9.48H58.7541C58.9407 9.48 59.1007 9.54666 59.2341 9.68C59.3674 9.81333 59.4341 9.97333 59.4341 10.16V29.48C59.4341 29.9067 59.2741 30.2667 58.9541 30.56C58.6607 30.8533 58.3007 31 57.8741 31H57.0341C56.8474 31 56.6874 30.9333 56.5541 30.8C56.4207 30.6667 56.3541 30.5067 56.3541 30.32V26.4C56.3541 26.8267 56.1941 27.1867 55.8741 27.48C55.5807 27.7733 55.2207 27.92 54.7941 27.92H53.9941C53.7807 27.92 53.6074 28 53.4741 28.16C53.3407 28.2933 53.2741 28.4667 53.2741 28.68V29.48C53.2741 29.9067 53.1274 30.2667 52.8341 30.56C52.5407 30.8533 52.1807 31 51.7541 31H42.5141C42.0874 31 41.7274 30.8533 41.4341 30.56C41.1407 30.2667 40.9941 29.9067 40.9941 29.48V28.68C40.9941 28.4667 40.9141 28.2933 40.7541 28.16C40.6207 28 40.4474 27.92 40.2341 27.92H39.4341C39.0074 27.92 38.6474 27.7733 38.3541 27.48C38.0607 27.1867 37.9141 26.8267 37.9141 26.4V11.04C37.9141 10.6133 38.0607 10.2533 38.3541 9.96C38.6474 9.64 39.0074 9.48 39.4341 9.48H40.3141C40.5007 9.48 40.6607 9.54666 40.7941 9.68C40.9274 9.81333 40.9941 9.97333 40.9941 10.16V27.2C40.9941 27.3867 41.0607 27.56 41.1941 27.72C41.3541 27.8533 41.5274 27.92 41.7141 27.92H52.5541C52.7674 27.92 52.9407 27.8533 53.0741 27.72C53.2074 27.56 53.2741 27.3867 53.2741 27.2V26.4C53.2741 25.9733 53.4207 25.6133 53.7141 25.32C54.0074 25 54.3674 24.84 54.7941 24.84H55.6741C55.8607 24.84 56.0207 24.7867 56.1541 24.68C56.2874 24.5467 56.3541 24.3867 56.3541 24.2V11.04ZM82.8219 12.56C83.2485 12.56 83.6085 12.7067 83.9019 13C84.1952 13.2933 84.3419 13.6533 84.3419 14.08V17.16C84.3419 17.5867 84.1952 17.96 83.9019 18.28C83.6085 18.5733 83.2485 18.72 82.8219 18.72H82.0219C81.8085 18.72 81.6219 18.7867 81.4619 18.92C81.3285 19.0533 81.2619 19.2267 81.2619 19.44V20.24C81.2619 20.6667 81.1152 21.0267 80.8219 21.32C80.5285 21.6133 80.1685 21.76 79.7419 21.76H67.4219C66.9952 21.76 66.6352 21.6133 66.3419 21.32C66.0485 21.0267 65.9019 20.6667 65.9019 20.24V24.12C65.9019 24.3067 65.9685 24.48 66.1019 24.64C66.2619 24.7733 66.4352 24.84 66.6219 24.84H67.4219C67.8485 24.84 68.2085 25 68.5019 25.32C68.8219 25.6133 68.9819 25.9733 68.9819 26.4V27.2C68.9819 27.3867 69.0485 27.56 69.1819 27.72C69.3419 27.8533 69.5152 27.92 69.7019 27.92H80.5419C80.7552 27.92 80.9285 27.8533 81.0619 27.72C81.1952 27.56 81.2619 27.3867 81.2619 27.2V26.4C81.2619 25.9733 81.4085 25.6133 81.7019 25.32C82.0219 25 82.3952 24.84 82.8219 24.84H83.6619C83.8485 24.84 84.0085 24.9067 84.1419 25.04C84.2752 25.1733 84.3419 25.3333 84.3419 25.52V26.4C84.3419 26.8267 84.1952 27.1867 83.9019 27.48C83.6085 27.7733 83.2485 27.92 82.8219 27.92H82.0219C81.8085 27.92 81.6219 28 81.4619 28.16C81.3285 28.2933 81.2619 28.4667 81.2619 28.68V29.48C81.2619 29.9067 81.1152 30.2667 80.8219 30.56C80.5285 30.8533 80.1685 31 79.7419 31H70.5019C70.0752 31 69.7152 30.8533 69.4219 30.56C69.1285 30.2667 68.9819 29.9067 68.9819 29.48V28.68C68.9819 28.4667 68.9019 28.2933 68.7419 28.16C68.6085 28 68.4352 27.92 68.2219 27.92H67.4219C66.9952 27.92 66.6352 27.7733 66.3419 27.48C66.0485 27.1867 65.9019 26.8267 65.9019 26.4V25.6C65.9019 25.3867 65.8219 25.2133 65.6619 25.08C65.5285 24.92 65.3552 24.84 65.1419 24.84H64.3419C63.9152 24.84 63.5552 24.6933 63.2619 24.4C62.9685 24.1067 62.8219 23.7467 62.8219 23.32V17.16C62.8219 16.7333 62.9685 16.3733 63.2619 16.08C63.5552 15.7867 63.9152 15.64 64.3419 15.64H65.1419C65.3552 15.64 65.5285 15.5733 65.6619 15.44C65.8219 15.28 65.9019 15.0933 65.9019 14.88V11.04C65.9019 10.6133 66.0485 10.2533 66.3419 9.96C66.6352 9.64 66.9952 9.48 67.4219 9.48H79.7419C80.1685 9.48 80.5285 9.64 80.8219 9.96C81.1152 10.2533 81.2619 10.6133 81.2619 11.04V11.84C81.2619 12.0533 81.3285 12.2267 81.4619 12.36C81.6219 12.4933 81.8085 12.56 82.0219 12.56H82.8219ZM80.5419 18.72C80.7285 18.72 80.8885 18.6533 81.0219 18.52C81.1819 18.36 81.2619 18.1733 81.2619 17.96V13.28C81.2619 13.0667 81.1952 12.8933 81.0619 12.76C80.9285 12.6267 80.7552 12.56 80.5419 12.56H69.6619C69.4752 12.56 69.3152 12.6267 69.1819 12.76C69.0485 12.8667 68.9819 13.0267 68.9819 13.24V14.08C68.9819 14.5067 68.8352 14.88 68.5419 15.2C68.2485 15.4933 67.8752 15.64 67.4219 15.64H66.6219C66.4352 15.64 66.2619 15.7067 66.1019 15.84C65.9685 15.9733 65.9019 16.1467 65.9019 16.36V18.04C65.9019 18.2267 65.9685 18.3867 66.1019 18.52C66.2352 18.6533 66.3952 18.72 66.5819 18.72H80.5419ZM108.878 4.04C108.878 3.82667 108.798 3.65333 108.638 3.52C108.504 3.36 108.344 3.28 108.158 3.28H94.1578C93.9711 3.28 93.8111 3.34667 93.6778 3.48C93.5711 3.61333 93.5178 3.77333 93.5178 3.96V4.84C93.5178 5.26667 93.3578 5.62667 93.0378 5.92C92.7445 6.21333 92.3845 6.36 91.9578 6.36H91.1578C90.9445 6.36 90.7711 6.44 90.6378 6.6C90.5045 6.73333 90.4378 6.90667 90.4378 7.12V11.8C90.4378 11.9867 90.5045 12.16 90.6378 12.32C90.7978 12.4533 90.9711 12.52 91.1578 12.52H104.278C104.704 12.52 105.064 12.68 105.358 13C105.678 13.2933 105.838 13.6533 105.838 14.08V14.88C105.838 15.0667 105.904 15.24 106.038 15.4C106.198 15.5333 106.371 15.6 106.558 15.6H107.358C107.784 15.6 108.144 15.76 108.438 16.08C108.731 16.3733 108.878 16.7333 108.878 17.16V17.96C108.878 18.1467 108.944 18.32 109.078 18.48C109.238 18.6133 109.424 18.68 109.638 18.68H110.438C110.864 18.68 111.224 18.84 111.518 19.16C111.811 19.4533 111.958 19.8133 111.958 20.24V26.4C111.958 26.8267 111.811 27.1867 111.518 27.48C111.224 27.7733 110.864 27.92 110.438 27.92H109.638C109.424 27.92 109.238 28 109.078 28.16C108.944 28.2933 108.878 28.4533 108.878 28.64V29.48C108.878 29.9067 108.731 30.2667 108.438 30.56C108.144 30.8533 107.784 31 107.358 31H91.9578C91.5311 31 91.1711 30.8533 90.8778 30.56C90.5845 30.2667 90.4378 29.9067 90.4378 29.48V28.64C90.4378 28.4533 90.3578 28.2933 90.1978 28.16C90.0645 28 89.8911 27.92 89.6778 27.92H88.8778C88.4511 27.92 88.0911 27.7733 87.7978 27.48C87.5045 27.1867 87.3578 26.8267 87.3578 26.4V25.52C87.3578 25.3333 87.4111 25.1733 87.5178 25.04C87.6511 24.9067 87.8111 24.84 87.9978 24.84H88.8778C89.3045 24.84 89.6645 25 89.9578 25.32C90.2778 25.6133 90.4378 25.9733 90.4378 26.4V27.2C90.4378 27.3867 90.5045 27.56 90.6378 27.72C90.7978 27.8533 90.9711 27.92 91.1578 27.92H108.158C108.371 27.92 108.544 27.8533 108.678 27.72C108.811 27.56 108.878 27.3867 108.878 27.2V19.44C108.878 19.2267 108.811 19.0533 108.678 18.92C108.544 18.76 108.371 18.68 108.158 18.68H107.358C106.931 18.68 106.571 18.5333 106.278 18.24C105.984 17.9467 105.838 17.5867 105.838 17.16V16.36C105.838 16.1467 105.758 15.9733 105.598 15.84C105.464 15.68 105.291 15.6 105.078 15.6H91.9578C91.5311 15.6 91.1711 15.4533 90.8778 15.16C90.5845 14.8667 90.4378 14.5067 90.4378 14.08V13.28C90.4378 13.0667 90.3578 12.8933 90.1978 12.76C90.0645 12.6 89.8911 12.52 89.6778 12.52H88.8778C88.4511 12.52 88.0911 12.3733 87.7978 12.08C87.5045 11.7867 87.3578 11.4267 87.3578 11V7.88C87.3578 7.45333 87.5045 7.09333 87.7978 6.8C88.0911 6.50666 88.4511 6.36 88.8778 6.36H89.6778C89.8911 6.36 90.0645 6.29333 90.1978 6.16C90.3578 6 90.4378 5.82667 90.4378 5.64V1.76C90.4378 1.33333 90.5845 0.973332 90.8778 0.679999C91.1711 0.359999 91.5311 0.199998 91.9578 0.199998H107.358C107.784 0.199998 108.144 0.346665 108.438 0.639997C108.731 0.933332 108.878 1.29333 108.878 1.72V2.56C108.878 2.74666 108.944 2.92 109.078 3.08C109.238 3.21333 109.424 3.28 109.638 3.28H110.438C110.864 3.28 111.224 3.44 111.518 3.76C111.811 4.05333 111.958 4.41333 111.958 4.84V5.68C111.958 5.86667 111.891 6.02666 111.758 6.16C111.651 6.29333 111.504 6.36 111.318 6.36H110.438C110.011 6.36 109.638 6.21333 109.318 5.92C109.024 5.6 108.878 5.22666 108.878 4.8V4.04ZM137.09 26.4C137.09 26.8267 136.944 27.1867 136.65 27.48C136.357 27.7733 135.997 27.92 135.57 27.92H134.77C134.557 27.92 134.37 28 134.21 28.16C134.077 28.2933 134.01 28.4667 134.01 28.68V29.48C134.01 29.9067 133.864 30.2667 133.57 30.56C133.277 30.8533 132.917 31 132.49 31H123.25C122.824 31 122.464 30.8533 122.17 30.56C121.877 30.2667 121.73 29.9067 121.73 29.48V28.68C121.73 28.4667 121.65 28.2933 121.49 28.16C121.357 28 121.184 27.92 120.97 27.92H120.17C119.744 27.92 119.384 27.7733 119.09 27.48C118.797 27.1867 118.65 26.8267 118.65 26.4V39.56C118.65 39.7467 118.584 39.9067 118.45 40.04C118.317 40.1733 118.157 40.24 117.97 40.24H117.09C116.664 40.24 116.304 40.08 116.01 39.76C115.717 39.4667 115.57 39.1067 115.57 38.68V17.16C115.57 16.7333 115.717 16.3733 116.01 16.08C116.304 15.7867 116.664 15.64 117.09 15.64H117.89C118.104 15.64 118.277 15.5733 118.41 15.44C118.57 15.28 118.65 15.0933 118.65 14.88V11.04C118.65 10.6133 118.797 10.2533 119.09 9.96C119.384 9.64 119.744 9.48 120.17 9.48H132.49C132.917 9.48 133.277 9.64 133.57 9.96C133.864 10.2533 134.01 10.6133 134.01 11.04V11.84C134.01 12.0533 134.077 12.2267 134.21 12.36C134.37 12.4933 134.557 12.56 134.77 12.56H135.57C135.997 12.56 136.357 12.7067 136.65 13C136.944 13.2933 137.09 13.6533 137.09 14.08V26.4ZM134.01 13.28C134.01 13.0667 133.944 12.8933 133.81 12.76C133.677 12.6267 133.504 12.56 133.29 12.56H122.37C122.184 12.56 122.024 12.6267 121.89 12.76C121.784 12.8933 121.73 13.0533 121.73 13.24V14.08C121.73 14.5067 121.584 14.88 121.29 15.2C120.997 15.4933 120.624 15.64 120.17 15.64H119.37C119.184 15.64 119.01 15.7067 118.85 15.84C118.717 15.9733 118.65 16.1467 118.65 16.36V24.2C118.65 24.3867 118.717 24.5467 118.85 24.68C118.984 24.7867 119.144 24.84 119.33 24.84H120.17C120.597 24.84 120.957 25 121.25 25.32C121.57 25.6133 121.73 25.9733 121.73 26.4V27.2C121.73 27.3867 121.797 27.56 121.93 27.72C122.09 27.8533 122.264 27.92 122.45 27.92H133.29C133.504 27.92 133.677 27.8533 133.81 27.72C133.944 27.56 134.01 27.3867 134.01 27.2V13.28ZM144.492 31C144.066 31 143.706 30.8533 143.412 30.56C143.119 30.2667 142.972 29.9067 142.972 29.48V28.68C142.972 28.4667 142.892 28.2933 142.732 28.16C142.599 28 142.426 27.92 142.212 27.92H141.412C140.986 27.92 140.626 27.7733 140.332 27.48C140.039 27.1867 139.892 26.8267 139.892 26.4V23.32C139.892 22.8933 140.039 22.5333 140.332 22.24C140.626 21.92 140.986 21.76 141.412 21.76H142.212C142.426 21.76 142.599 21.6933 142.732 21.56C142.892 21.4267 142.972 21.2533 142.972 21.04V20.24C142.972 19.8133 143.119 19.4533 143.412 19.16C143.706 18.8667 144.066 18.72 144.492 18.72H156.812C157.239 18.72 157.599 18.8667 157.892 19.16C158.186 19.4533 158.332 19.8133 158.332 20.24V13.28C158.332 13.0667 158.266 12.8933 158.132 12.76C157.999 12.6267 157.826 12.56 157.612 12.56H143.692C143.506 12.56 143.332 12.6267 143.172 12.76C143.039 12.8933 142.972 13.0667 142.972 13.28V14.08C142.972 14.5067 142.826 14.88 142.532 15.2C142.239 15.4933 141.866 15.64 141.412 15.64H140.572C140.386 15.64 140.226 15.5733 140.092 15.44C139.959 15.3067 139.892 15.1467 139.892 14.96V14.08C139.892 13.6533 140.039 13.2933 140.332 13C140.626 12.7067 140.986 12.56 141.412 12.56H142.212C142.426 12.56 142.599 12.4933 142.732 12.36C142.892 12.2267 142.972 12.0533 142.972 11.84V11.04C142.972 10.6133 143.119 10.2533 143.412 9.96C143.706 9.64 144.066 9.48 144.492 9.48H156.812C157.239 9.48 157.599 9.64 157.892 9.96C158.186 10.2533 158.332 10.6133 158.332 11.04V11.84C158.332 12.0267 158.399 12.2 158.532 12.36C158.692 12.4933 158.866 12.56 159.052 12.56H159.852C160.279 12.56 160.639 12.7067 160.932 13C161.252 13.2933 161.412 13.6533 161.412 14.08V23.32C161.412 23.7467 161.252 24.1067 160.932 24.4C160.639 24.6933 160.279 24.84 159.852 24.84H159.052C158.866 24.84 158.692 24.92 158.532 25.08C158.399 25.2133 158.332 25.3867 158.332 25.6V29.48C158.332 29.9067 158.186 30.2667 157.892 30.56C157.599 30.8533 157.239 31 156.812 31H144.492ZM154.572 27.92C154.786 27.92 154.946 27.8533 155.052 27.72C155.186 27.5867 155.252 27.4267 155.252 27.24V26.4C155.252 25.9733 155.399 25.6133 155.692 25.32C156.012 25 156.386 24.84 156.812 24.84H157.612C157.826 24.84 157.999 24.7733 158.132 24.64C158.266 24.48 158.332 24.3067 158.332 24.12V22.44C158.332 22.2533 158.266 22.0933 158.132 21.96C157.999 21.8267 157.839 21.76 157.652 21.76H143.692C143.506 21.76 143.332 21.84 143.172 22C143.039 22.1333 142.972 22.3067 142.972 22.52V27.2C142.972 27.3867 143.039 27.56 143.172 27.72C143.332 27.8533 143.506 27.92 143.692 27.92H154.572ZM184.188 15.64C183.761 15.64 183.401 15.4933 183.108 15.2C182.815 14.88 182.668 14.5067 182.668 14.08V13.28C182.668 13.0667 182.601 12.8933 182.468 12.76C182.335 12.6267 182.161 12.56 181.948 12.56H171.028C170.841 12.56 170.681 12.6267 170.548 12.76C170.441 12.8933 170.388 13.0533 170.388 13.24V14.08C170.388 14.5067 170.228 14.88 169.908 15.2C169.615 15.4933 169.255 15.64 168.828 15.64H168.028C167.841 15.64 167.668 15.7067 167.508 15.84C167.375 15.9733 167.308 16.1467 167.308 16.36V24.12C167.308 24.3067 167.375 24.48 167.508 24.64C167.668 24.7733 167.841 24.84 168.028 24.84H168.828C169.255 24.84 169.615 25 169.908 25.32C170.228 25.6133 170.388 25.9733 170.388 26.4V27.2C170.388 27.3867 170.455 27.56 170.588 27.72C170.748 27.8533 170.921 27.92 171.108 27.92H181.948C182.161 27.92 182.335 27.8533 182.468 27.72C182.601 27.56 182.668 27.3867 182.668 27.2V26.4C182.668 25.9733 182.815 25.6133 183.108 25.32C183.401 25 183.761 24.84 184.188 24.84H185.068C185.255 24.84 185.415 24.9067 185.548 25.04C185.681 25.1733 185.748 25.3333 185.748 25.52V26.4C185.748 26.8267 185.588 27.1867 185.268 27.48C184.975 27.7733 184.615 27.92 184.188 27.92H183.388C183.175 27.92 183.001 28 182.868 28.16C182.735 28.2933 182.668 28.4667 182.668 28.68V29.48C182.668 29.9067 182.521 30.2667 182.228 30.56C181.935 30.8533 181.575 31 181.148 31H171.908C171.481 31 171.121 30.8533 170.828 30.56C170.535 30.2667 170.388 29.9067 170.388 29.48V28.68C170.388 28.4667 170.308 28.2933 170.148 28.16C170.015 28 169.841 27.92 169.628 27.92H168.828C168.401 27.92 168.041 27.7733 167.748 27.48C167.455 27.1867 167.308 26.8267 167.308 26.4V25.6C167.308 25.3867 167.228 25.2133 167.068 25.08C166.935 24.92 166.761 24.84 166.548 24.84H165.748C165.321 24.84 164.961 24.6933 164.668 24.4C164.375 24.1067 164.228 23.7467 164.228 23.32V17.16C164.228 16.7333 164.375 16.3733 164.668 16.08C164.961 15.7867 165.321 15.64 165.748 15.64H166.548C166.761 15.64 166.935 15.5733 167.068 15.44C167.228 15.28 167.308 15.0933 167.308 14.88V11.04C167.308 10.6133 167.455 10.2533 167.748 9.96C168.041 9.64 168.401 9.48 168.828 9.48H181.148C181.575 9.48 181.935 9.64 182.228 9.96C182.521 10.2533 182.668 10.6133 182.668 11.04V11.84C182.668 12.0267 182.735 12.2 182.868 12.36C183.028 12.4933 183.201 12.56 183.388 12.56H184.188C184.615 12.56 184.975 12.7067 185.268 13C185.588 13.2933 185.748 13.6533 185.748 14.08V14.96C185.748 15.1467 185.681 15.3067 185.548 15.44C185.415 15.5733 185.255 15.64 185.068 15.64H184.188ZM208.564 12.56C208.991 12.56 209.351 12.7067 209.644 13C209.937 13.2933 210.084 13.6533 210.084 14.08V17.16C210.084 17.5867 209.937 17.96 209.644 18.28C209.351 18.5733 208.991 18.72 208.564 18.72H207.764C207.551 18.72 207.364 18.7867 207.204 18.92C207.071 19.0533 207.004 19.2267 207.004 19.44V20.24C207.004 20.6667 206.857 21.0267 206.564 21.32C206.271 21.6133 205.911 21.76 205.484 21.76H193.164C192.737 21.76 192.377 21.6133 192.084 21.32C191.791 21.0267 191.644 20.6667 191.644 20.24V24.12C191.644 24.3067 191.711 24.48 191.844 24.64C192.004 24.7733 192.177 24.84 192.364 24.84H193.164C193.591 24.84 193.951 25 194.244 25.32C194.564 25.6133 194.724 25.9733 194.724 26.4V27.2C194.724 27.3867 194.791 27.56 194.924 27.72C195.084 27.8533 195.257 27.92 195.444 27.92H206.284C206.497 27.92 206.671 27.8533 206.804 27.72C206.937 27.56 207.004 27.3867 207.004 27.2V26.4C207.004 25.9733 207.151 25.6133 207.444 25.32C207.764 25 208.137 24.84 208.564 24.84H209.404C209.591 24.84 209.751 24.9067 209.884 25.04C210.017 25.1733 210.084 25.3333 210.084 25.52V26.4C210.084 26.8267 209.937 27.1867 209.644 27.48C209.351 27.7733 208.991 27.92 208.564 27.92H207.764C207.551 27.92 207.364 28 207.204 28.16C207.071 28.2933 207.004 28.4667 207.004 28.68V29.48C207.004 29.9067 206.857 30.2667 206.564 30.56C206.271 30.8533 205.911 31 205.484 31H196.244C195.817 31 195.457 30.8533 195.164 30.56C194.871 30.2667 194.724 29.9067 194.724 29.48V28.68C194.724 28.4667 194.644 28.2933 194.484 28.16C194.351 28 194.177 27.92 193.964 27.92H193.164C192.737 27.92 192.377 27.7733 192.084 27.48C191.791 27.1867 191.644 26.8267 191.644 26.4V25.6C191.644 25.3867 191.564 25.2133 191.404 25.08C191.271 24.92 191.097 24.84 190.884 24.84H190.084C189.657 24.84 189.297 24.6933 189.004 24.4C188.711 24.1067 188.564 23.7467 188.564 23.32V17.16C188.564 16.7333 188.711 16.3733 189.004 16.08C189.297 15.7867 189.657 15.64 190.084 15.64H190.884C191.097 15.64 191.271 15.5733 191.404 15.44C191.564 15.28 191.644 15.0933 191.644 14.88V11.04C191.644 10.6133 191.791 10.2533 192.084 9.96C192.377 9.64 192.737 9.48 193.164 9.48H205.484C205.911 9.48 206.271 9.64 206.564 9.96C206.857 10.2533 207.004 10.6133 207.004 11.04V11.84C207.004 12.0533 207.071 12.2267 207.204 12.36C207.364 12.4933 207.551 12.56 207.764 12.56H208.564ZM206.284 18.72C206.471 18.72 206.631 18.6533 206.764 18.52C206.924 18.36 207.004 18.1733 207.004 17.96V13.28C207.004 13.0667 206.937 12.8933 206.804 12.76C206.671 12.6267 206.497 12.56 206.284 12.56H195.404C195.217 12.56 195.057 12.6267 194.924 12.76C194.791 12.8667 194.724 13.0267 194.724 13.24V14.08C194.724 14.5067 194.577 14.88 194.284 15.2C193.991 15.4933 193.617 15.64 193.164 15.64H192.364C192.177 15.64 192.004 15.7067 191.844 15.84C191.711 15.9733 191.644 16.1467 191.644 16.36V18.04C191.644 18.2267 191.711 18.3867 191.844 18.52C191.977 18.6533 192.137 18.72 192.324 18.72H206.284ZM22.12 52.04C22.12 51.8267 22.04 51.6533 21.88 51.52C21.7467 51.36 21.5867 51.28 21.4 51.28H7.4C7.21333 51.28 7.05333 51.3467 6.92 51.48C6.81333 51.6133 6.76 51.7733 6.76 51.96V52.84C6.76 53.2667 6.6 53.6267 6.28 53.92C5.98667 54.2133 5.62667 54.36 5.2 54.36H4.4C4.18667 54.36 4.01333 54.44 3.88 54.6C3.74667 54.7333 3.68 54.9067 3.68 55.12V59.8C3.68 59.9867 3.74667 60.16 3.88 60.32C4.04 60.4533 4.21333 60.52 4.4 60.52H17.52C17.9467 60.52 18.3067 60.68 18.6 61C18.92 61.2933 19.08 61.6533 19.08 62.08V62.88C19.08 63.0667 19.1467 63.24 19.28 63.4C19.44 63.5333 19.6133 63.6 19.8 63.6H20.6C21.0267 63.6 21.3867 63.76 21.68 64.08C21.9733 64.3733 22.12 64.7333 22.12 65.16V65.96C22.12 66.1467 22.1867 66.32 22.32 66.48C22.48 66.6133 22.6667 66.68 22.88 66.68H23.68C24.1067 66.68 24.4667 66.84 24.76 67.16C25.0533 67.4533 25.2 67.8133 25.2 68.24V74.4C25.2 74.8267 25.0533 75.1867 24.76 75.48C24.4667 75.7733 24.1067 75.92 23.68 75.92H22.88C22.6667 75.92 22.48 76 22.32 76.16C22.1867 76.2933 22.12 76.4533 22.12 76.64V77.48C22.12 77.9067 21.9733 78.2667 21.68 78.56C21.3867 78.8533 21.0267 79 20.6 79H5.2C4.77333 79 4.41333 78.8533 4.12 78.56C3.82667 78.2667 3.68 77.9067 3.68 77.48V76.64C3.68 76.4533 3.6 76.2933 3.44 76.16C3.30667 76 3.13333 75.92 2.92 75.92H2.12C1.69333 75.92 1.33333 75.7733 1.04 75.48C0.746667 75.1867 0.6 74.8267 0.6 74.4V73.52C0.6 73.3333 0.653333 73.1733 0.76 73.04C0.893333 72.9067 1.05333 72.84 1.24 72.84H2.12C2.54667 72.84 2.90667 73 3.2 73.32C3.52 73.6133 3.68 73.9733 3.68 74.4V75.2C3.68 75.3867 3.74667 75.56 3.88 75.72C4.04 75.8533 4.21333 75.92 4.4 75.92H21.4C21.6133 75.92 21.7867 75.8533 21.92 75.72C22.0533 75.56 22.12 75.3867 22.12 75.2V67.44C22.12 67.2267 22.0533 67.0533 21.92 66.92C21.7867 66.76 21.6133 66.68 21.4 66.68H20.6C20.1733 66.68 19.8133 66.5333 19.52 66.24C19.2267 65.9467 19.08 65.5867 19.08 65.16V64.36C19.08 64.1467 19 63.9733 18.84 63.84C18.7067 63.68 18.5333 63.6 18.32 63.6H5.2C4.77333 63.6 4.41333 63.4533 4.12 63.16C3.82667 62.8667 3.68 62.5067 3.68 62.08V61.28C3.68 61.0667 3.6 60.8933 3.44 60.76C3.30667 60.6 3.13333 60.52 2.92 60.52H2.12C1.69333 60.52 1.33333 60.3733 1.04 60.08C0.746667 59.7867 0.6 59.4267 0.6 59V55.88C0.6 55.4533 0.746667 55.0933 1.04 54.8C1.33333 54.5067 1.69333 54.36 2.12 54.36H2.92C3.13333 54.36 3.30667 54.2933 3.44 54.16C3.6 54 3.68 53.8267 3.68 53.64V49.76C3.68 49.3333 3.82667 48.9733 4.12 48.68C4.41333 48.36 4.77333 48.2 5.2 48.2H20.6C21.0267 48.2 21.3867 48.3467 21.68 48.64C21.9733 48.9333 22.12 49.2933 22.12 49.72V50.56C22.12 50.7467 22.1867 50.92 22.32 51.08C22.48 51.2133 22.6667 51.28 22.88 51.28H23.68C24.1067 51.28 24.4667 51.44 24.76 51.76C25.0533 52.0533 25.2 52.4133 25.2 52.84V53.68C25.2 53.8667 25.1333 54.0267 25 54.16C24.8933 54.2933 24.7467 54.36 24.56 54.36H23.68C23.2533 54.36 22.88 54.2133 22.56 53.92C22.2667 53.6 22.12 53.2267 22.12 52.8V52.04ZM39.8125 57.48C39.9992 57.48 40.1592 57.5467 40.2925 57.68C40.4258 57.8133 40.4925 57.9733 40.4925 58.16V59.04C40.4925 59.4667 40.3458 59.8267 40.0525 60.12C39.7592 60.4133 39.3992 60.56 38.9725 60.56H34.3325V75.24C34.3325 75.4267 34.3992 75.5867 34.5325 75.72C34.6658 75.8533 34.8258 75.92 35.0125 75.92H36.6925C36.9058 75.92 37.0792 75.8533 37.2125 75.72C37.3458 75.56 37.4125 75.3867 37.4125 75.2V74.4C37.4125 73.9733 37.5592 73.6133 37.8525 73.32C38.1725 73 38.5458 72.84 38.9725 72.84H39.8125C39.9992 72.84 40.1592 72.9067 40.2925 73.04C40.4258 73.1733 40.4925 73.3333 40.4925 73.52V74.4C40.4925 74.8267 40.3458 75.1867 40.0525 75.48C39.7592 75.7733 39.3992 75.92 38.9725 75.92H38.1725C37.9592 75.92 37.7725 76 37.6125 76.16C37.4792 76.2933 37.4125 76.4667 37.4125 76.68V77.48C37.4125 77.9067 37.2658 78.2667 36.9725 78.56C36.6792 78.8533 36.3192 79 35.8925 79H32.8125C32.3858 79 32.0125 78.8533 31.6925 78.56C31.3992 78.2667 31.2525 77.9067 31.2525 77.48V60.56H28.8525C28.6658 60.56 28.5058 60.4933 28.3725 60.36C28.2658 60.2267 28.2125 60.0667 28.2125 59.88V59.04C28.2125 58.6133 28.3592 58.2533 28.6525 57.96C28.9458 57.64 29.3058 57.48 29.7325 57.48H31.2525V49.8C31.2525 49.3733 31.3992 49.0133 31.6925 48.72C32.0125 48.4267 32.3858 48.28 32.8125 48.28H33.6925C33.8792 48.28 34.0258 48.3467 34.1325 48.48C34.2658 48.5867 34.3325 48.7333 34.3325 48.92V57.48H39.8125ZM62.3306 59.04C62.3306 58.6133 62.4773 58.2533 62.7706 57.96C63.064 57.64 63.424 57.48 63.8506 57.48H64.7306C64.9173 57.48 65.0773 57.5467 65.2106 57.68C65.344 57.8133 65.4106 57.9733 65.4106 58.16V77.48C65.4106 77.9067 65.2506 78.2667 64.9306 78.56C64.6373 78.8533 64.2773 79 63.8506 79H63.0106C62.824 79 62.664 78.9333 62.5306 78.8C62.3973 78.6667 62.3306 78.5067 62.3306 78.32V74.4C62.3306 74.8267 62.1706 75.1867 61.8506 75.48C61.5573 75.7733 61.1973 75.92 60.7706 75.92H59.9706C59.7573 75.92 59.584 76 59.4506 76.16C59.3173 76.2933 59.2506 76.4667 59.2506 76.68V77.48C59.2506 77.9067 59.104 78.2667 58.8106 78.56C58.5173 78.8533 58.1573 79 57.7306 79H48.4906C48.064 79 47.704 78.8533 47.4106 78.56C47.1173 78.2667 46.9706 77.9067 46.9706 77.48V76.68C46.9706 76.4667 46.8906 76.2933 46.7306 76.16C46.5973 76 46.424 75.92 46.2106 75.92H45.4106C44.984 75.92 44.624 75.7733 44.3306 75.48C44.0373 75.1867 43.8906 74.8267 43.8906 74.4V59.04C43.8906 58.6133 44.0373 58.2533 44.3306 57.96C44.624 57.64 44.984 57.48 45.4106 57.48H46.2906C46.4773 57.48 46.6373 57.5467 46.7706 57.68C46.904 57.8133 46.9706 57.9733 46.9706 58.16V75.2C46.9706 75.3867 47.0373 75.56 47.1706 75.72C47.3306 75.8533 47.504 75.92 47.6906 75.92H58.5306C58.744 75.92 58.9173 75.8533 59.0506 75.72C59.184 75.56 59.2506 75.3867 59.2506 75.2V74.4C59.2506 73.9733 59.3973 73.6133 59.6906 73.32C59.984 73 60.344 72.84 60.7706 72.84H61.6506C61.8373 72.84 61.9973 72.7867 62.1306 72.68C62.264 72.5467 62.3306 72.3867 62.3306 72.2V59.04ZM68.7984 62.08C68.7984 61.6533 68.9451 61.2933 69.2384 61C69.5318 60.7067 69.8918 60.56 70.3184 60.56H71.1184C71.3318 60.56 71.5051 60.4933 71.6384 60.36C71.7984 60.2 71.8784 60.0267 71.8784 59.84V59.04C71.8784 58.6133 72.0251 58.2533 72.3184 57.96C72.6118 57.64 72.9718 57.48 73.3984 57.48H82.6384C83.0651 57.48 83.4251 57.64 83.7184 57.96C84.0118 58.2533 84.1584 58.6133 84.1584 59.04V59.84C84.1584 60.0267 84.2251 60.2 84.3584 60.36C84.5184 60.4933 84.6918 60.56 84.8784 60.56H85.7184C86.1451 60.56 86.5051 60.7067 86.7984 61C87.0918 61.2933 87.2384 61.6533 87.2384 62.08V48.92C87.2384 48.7333 87.3051 48.5867 87.4384 48.48C87.5718 48.3467 87.7318 48.28 87.9184 48.28H88.7584C89.1851 48.28 89.5451 48.4267 89.8384 48.72C90.1584 49.0133 90.3184 49.3733 90.3184 49.8V71.32C90.3184 71.7467 90.1584 72.1067 89.8384 72.4C89.5451 72.6933 89.1851 72.84 88.7584 72.84H87.9584C87.7718 72.84 87.5984 72.92 87.4384 73.08C87.3051 73.2133 87.2384 73.3867 87.2384 73.6V77.48C87.2384 77.9067 87.0918 78.2667 86.7984 78.56C86.5051 78.8533 86.1451 79 85.7184 79H73.3984C72.9718 79 72.6118 78.8533 72.3184 78.56C72.0251 78.2667 71.8784 77.9067 71.8784 77.48V76.68C71.8784 76.4667 71.7984 76.2933 71.6384 76.16C71.5051 76 71.3318 75.92 71.1184 75.92H70.3184C69.8918 75.92 69.5318 75.7733 69.2384 75.48C68.9451 75.1867 68.7984 74.8267 68.7984 74.4V62.08ZM71.8784 75.2C71.8784 75.3867 71.9451 75.56 72.0784 75.72C72.2384 75.8533 72.4118 75.92 72.5984 75.92H83.4784C83.6918 75.92 83.8518 75.8533 83.9584 75.72C84.0918 75.5867 84.1584 75.4267 84.1584 75.24V74.4C84.1584 73.9733 84.3051 73.6133 84.5984 73.32C84.9184 73 85.2918 72.84 85.7184 72.84H86.5184C86.7318 72.84 86.9051 72.7733 87.0384 72.64C87.1718 72.48 87.2384 72.3067 87.2384 72.12V64.32C87.2384 64.1333 87.1718 63.9733 87.0384 63.84C86.9051 63.7067 86.7451 63.64 86.5584 63.64H85.7184C85.2918 63.64 84.9184 63.4933 84.5984 63.2C84.3051 62.88 84.1584 62.5067 84.1584 62.08V61.28C84.1584 61.0667 84.0918 60.8933 83.9584 60.76C83.8251 60.6267 83.6518 60.56 83.4384 60.56H72.5984C72.4118 60.56 72.2384 60.6267 72.0784 60.76C71.9451 60.8933 71.8784 61.0667 71.8784 61.28V75.2ZM97.5203 51.32C97.707 51.32 97.8536 51.3867 97.9603 51.52C98.0936 51.6533 98.1603 51.8133 98.1603 52V52.84C98.1603 53.2667 98.0136 53.64 97.7203 53.96C97.427 54.2533 97.067 54.4 96.6403 54.4H95.7603C95.5736 54.4 95.4136 54.3333 95.2803 54.2C95.1736 54.0667 95.1203 53.9067 95.1203 53.72V52.84C95.1203 52.4133 95.267 52.0533 95.5603 51.76C95.8536 51.4667 96.2136 51.32 96.6403 51.32H97.5203ZM95.1203 59.04C95.1203 58.6133 95.267 58.2533 95.5603 57.96C95.8536 57.64 96.2136 57.48 96.6403 57.48H97.5203C97.707 57.48 97.8536 57.5467 97.9603 57.68C98.0936 57.8133 98.1603 57.9733 98.1603 58.16V77.48C98.1603 77.9067 98.0136 78.2667 97.7203 78.56C97.427 78.8533 97.067 79 96.6403 79H95.7603C95.5736 79 95.4136 78.9333 95.2803 78.8C95.1736 78.6667 95.1203 78.5067 95.1203 78.32V59.04ZM125.393 63.64C125.82 63.64 126.18 63.7867 126.473 64.08C126.793 64.3733 126.953 64.7333 126.953 65.16V71.32C126.953 71.7467 126.793 72.1067 126.473 72.4C126.18 72.6933 125.82 72.84 125.393 72.84H124.593C124.406 72.84 124.233 72.92 124.073 73.08C123.94 73.2133 123.873 73.3867 123.873 73.6V77.48C123.873 77.9067 123.713 78.2667 123.393 78.56C123.1 78.8533 122.74 79 122.313 79H110.033C109.606 79 109.246 78.8533 108.953 78.56C108.66 78.2667 108.513 77.9067 108.513 77.48V76.68C108.513 76.4667 108.433 76.2933 108.273 76.16C108.14 76 107.966 75.92 107.753 75.92H106.953C106.526 75.92 106.166 75.7733 105.873 75.48C105.58 75.1867 105.433 74.8267 105.433 74.4V73.6C105.433 73.3867 105.353 73.2133 105.193 73.08C105.06 72.92 104.886 72.84 104.673 72.84H103.873C103.446 72.84 103.086 72.6933 102.793 72.4C102.5 72.1067 102.353 71.7467 102.353 71.32V65.16C102.353 64.7333 102.5 64.3733 102.793 64.08C103.086 63.7867 103.446 63.64 103.873 63.64H104.673C104.886 63.64 105.06 63.5733 105.193 63.44C105.353 63.28 105.433 63.0933 105.433 62.88V59.04C105.433 58.6133 105.58 58.2533 105.873 57.96C106.166 57.64 106.526 57.48 106.953 57.48H119.273C119.7 57.48 120.06 57.64 120.353 57.96C120.646 58.2533 120.793 58.6133 120.793 59.04V59.84C120.793 60.0267 120.86 60.2 120.993 60.36C121.153 60.4933 121.326 60.56 121.513 60.56H122.313C122.74 60.56 123.1 60.7067 123.393 61C123.713 61.2933 123.873 61.6533 123.873 62.08V62.88C123.873 63.0933 123.94 63.28 124.073 63.44C124.206 63.5733 124.38 63.64 124.593 63.64H125.393ZM123.113 72.84C123.326 72.84 123.5 72.7733 123.633 72.64C123.793 72.5067 123.873 72.3333 123.873 72.12V64.36C123.873 64.1467 123.793 63.9733 123.633 63.84C123.5 63.7067 123.326 63.64 123.113 63.64H122.313C121.886 63.64 121.526 63.4933 121.233 63.2C120.94 62.88 120.793 62.5067 120.793 62.08V61.28C120.793 61.0667 120.726 60.8933 120.593 60.76C120.46 60.6267 120.286 60.56 120.073 60.56H108.513V62.08C108.513 62.5067 108.353 62.88 108.033 63.2C107.74 63.4933 107.38 63.64 106.953 63.64H106.153C105.966 63.64 105.793 63.7067 105.633 63.84C105.5 63.9733 105.433 64.1467 105.433 64.36V72.12C105.433 72.3067 105.5 72.48 105.633 72.64C105.793 72.7733 105.966 72.84 106.153 72.84H106.953C107.38 72.84 107.74 73 108.033 73.32C108.353 73.6133 108.513 73.9733 108.513 74.4V75.2C108.513 75.3867 108.58 75.56 108.713 75.72C108.873 75.8533 109.046 75.92 109.233 75.92H120.793V74.4C120.793 73.9733 120.94 73.6133 121.233 73.32C121.526 73 121.886 72.84 122.313 72.84H123.113Z" fill="white"/>
</svg>
